# xmcd
#
# Track frame offsets:
#	150
#	15887
#	32267
#	47850
#	62057
#	82202
#	97927
#	116150
#	138032
#	153970
#	172697
#	186990
#
# Disc length: 2699 seconds
#
# Revision: 2
# Processed by: cddbd v1.5.2PL0 Copyright (c) Steve Scherf et al.
# Submitted via: audiograbber 1.83.01
#
DISCID=890a890c
DTITLE=Duane Steele - P.O. Box 423
DYEAR=1996
DGENRE=Country
TTITLE0=Stuck on Your Love
TTITLE1=The Trouble With Love
TTITLE2=Anita Got Married
TTITLE3=Lies
TTITLE4=Fire to the Devil
TTITLE5=Two Names On an Overpass
TTITLE6=Top Down in the Rain
TTITLE7=P.O. Box 423
TTITLE8=She's Tough
TTITLE9=One More Time
TTITLE10=Misery With a Beat
TTITLE11=Tender to the Touch
EXTD=
EXTT0=
EXTT1=
EXTT2=
EXTT3=
EXTT4=
EXTT5=
EXTT6=
EXTT7=
EXTT8=
EXTT9=
EXTT10=
EXTT11=
PLAYORDER=
